<svg id="Capa_1" enable-background="new 0 0 512 512" height="512" viewBox="0 0 512 512" width="512" xmlns="http://www.w3.org/2000/svg"><g><path d="m469.043 199.305-83.54-124.247v-26.71l-5.142-4.282v-8.672c-28.208-17.518-60.375-29.262-94.855-33.565h-34.518l-100.898 50.908-52.599 68.335-27.245 123.622 12.823 62.007 25.646 48.737 7.32 23.821v64.775h292.056l14.633-9.047c15.163-15.704 28.269-34.353 38.89-55.728l-7.47-21.245z" fill="#f9f6f6"/><path d="m120.028 391.188c0-13.717-3.733-27.071-10.348-38.713-16.847-29.652-27.446-63.31-30.036-99.19l-.012.008c-9.186-127.249 82.704-236.255 205.875-251.464-9.73-1.214-19.644-1.838-29.705-1.829-130.75.108-235.872 105.321-235.872 236.07 0 5.793.216 11.535.627 17.224l.012-.008 7.385 8.968 9.787 41.425 27.3 54.336 3.091 18.543-7.284 10.829c.063 1.265.105 2.532.105 3.802v43.799l8.209 9.047h59.076l-8.209-9.047v-43.8z" fill="#e2d8ec"/><path d="m424.732 434.987h-310.247c-3.395 1.48-5.77 4.863-5.77 8.803v33.211l6.68 5.15h313.3l5.325-5.755v-32.121c0-5.129-4.159-9.288-9.288-9.288z" fill="#e2d8ec"/><path d="m110.06 444.275c0-5.13 4.158-9.288 9.288-9.288h-63.04c-5.13 0-9.288 4.158-9.288 9.288v32.121l7.465 5.755h63.04l-7.465-5.755z" fill="#d5c6e4"/><path d="m260.379 179.278 11.213 32.966-3.917 32.451 7.726 18.543s85.129 36.743 86.159 37.43 41.551 72.456 41.551 73.83c0 .521 3.364 2.504 7.537 4.762h50.964c19.379-39 30.456-87.107 30.456-143.19 0-66.879-27.829-127.244-72.517-170.197h-10.947l-153.429 107.109z" fill="#8dcafc"/><g><path d="m404.588 367.232-35.101-62.561c-3.024-5.185-7.645-9.251-13.171-11.594l-65.544-27.776c-12.547-5.317-19.617-18.731-16.912-32.087 1.971-9.729 1.947-19.793-.397-29.439-2.128-8.755-9.402-23.141-15.406-32.807l-35.226 24.591 15.558 40.205-8.283 28.502 6.903 9.456 87.105 36.912c5.526 2.342 10.147 6.409 13.171 11.594l25.219 43.232c4.984 8.544 14.131 13.798 24.022 13.798h32.362c-5.92-2.21-11.016-6.397-14.3-12.026z" fill="#31a7fb"/></g><path d="m223.056 339.093-40.974-17.363-1.918-4.923-87.308-35.48h-6.115l-9.776-4.143 6.104 29.517 25.646 48.737 7.32 23.821v8.127h97.211c13.886 0 25.143-11.257 25.143-25.143 0-10.095-6.038-19.211-15.333-23.15z" fill="#e2d8ec"/><path d="m109.681 352.476c-12.633-22.234-21.751-46.72-26.615-72.706l-62.496-26.484c2.59 35.88 13.188 69.537 30.036 99.19 6.085 10.71 9.631 22.65 10.242 34.911h59.075c-.622-12.374-4.241-24.349-10.242-34.911z" fill="#d5c6e4"/><g><path d="m267.676 381.181c-4.267 0-7.726-3.459-7.726-7.726v-12.446c0-4.268 3.459-7.726 7.726-7.726s7.726 3.459 7.726 7.726v12.446c0 4.267-3.459 7.726-7.726 7.726z" fill="#d5c6e4"/></g><g><path d="m295.833 381.181c-4.267 0-7.726-3.459-7.726-7.726v-12.446c0-4.268 3.459-7.726 7.726-7.726s7.726 3.459 7.726 7.726v12.446c.001 4.267-3.458 7.726-7.726 7.726z" fill="#d5c6e4"/></g><g><path d="m323.992 381.181c-4.267 0-7.726-3.459-7.726-7.726v-12.446c0-4.268 3.459-7.726 7.726-7.726s7.726 3.459 7.726 7.726v12.446c0 4.267-3.459 7.726-7.726 7.726z" fill="#d5c6e4"/></g><path d="m420.984 50.38c-7.858-6.724-16.156-12.949-24.843-18.629-3.24-2.118-7.444-2.062-10.638.124l-157.909 108.1c16.115 12.172 28.508 30.305 31.872 35.488l160.643-109.971c5.167-3.537 5.633-11.041.875-15.112z" fill="#e2d8ec"/><path d="m436.342 476.396h-334.331c-7.526 2.42-12.976 9.472-12.976 17.802 0 8.331 5.45 15.382 12.976 17.802h334.33c9.832 0 17.802-7.97 17.802-17.802.001-9.832-7.97-17.802-17.801-17.802z" fill="#f9f6f6"/><path d="m89.936 494.198c0-9.832 7.97-17.802 17.802-17.802h-63.04c-9.832 0-17.802 7.97-17.802 17.802s7.97 17.802 17.802 17.802h63.04c-9.832 0-17.802-7.97-17.802-17.802z" fill="#e2d8ec"/><path d="m260.379 174.838s-13.135-21.479-31.37-35.832l-36.559 25.027v5.457l25.315 26.07h12.343z" fill="#d5c6e4"/><path d="m178.244 159.524c-34.508 11.067-59.496 43.393-59.496 81.577s24.988 70.51 59.496 81.577c37.4-8.318 65.371-41.671 65.371-81.577s-27.97-73.259-65.371-81.577z" fill="#5169cd"/><path d="m120.289 241.101c0-38.576 26.138-71.03 61.664-80.666-6.991-1.896-14.337-2.926-21.928-2.926-46.166 0-83.592 37.425-83.592 83.592s37.425 83.592 83.592 83.592c7.591 0 14.938-1.03 21.928-2.926-35.527-9.636-61.664-42.091-61.664-80.666z" fill="#3351c5"/><path d="m181.092 205.008c-11.797 7.682-19.611 20.966-19.611 36.093s7.814 28.411 19.611 36.093c12.396-7.252 20.728-20.695 20.728-36.093s-8.332-28.842-20.728-36.093z" fill="#3351c5"/><path d="m162.085 241.101c0-15.04 7.947-28.219 19.868-35.581-6.375-3.938-13.885-6.215-21.928-6.215-23.083 0-41.796 18.713-41.796 41.796s18.713 41.796 41.796 41.796c8.044 0 15.553-2.277 21.928-6.215-11.921-7.362-19.868-20.542-19.868-35.581z" fill="#213993"/></g></svg>